<svg width="1500" height="1500" viewBox="0 0 1500 1500" fill="none" xmlns="http://www.w3.org/2000/svg">
<path d="M777.704 837.822L1040.04 1020.24V657.119L924.01 737.041L777.704 837.822Z" fill="#007AB4"/>
<path d="M750.015 0C335.806 0 0 335.752 0 749.97C0 1164.19 335.806 1500 750.015 1500C1164.19 1500 1500 1164.19 1500 749.97C1500 335.752 1164.19 0 750.015 0ZM1102.31 1089.99V1090.01H397.628H371.118C330.162 1090.01 296.647 1056.5 296.647 1015.54V506.817C296.647 465.857 330.159 432.343 371.118 432.343L371.411 432.563L371.118 432.325H1131.09C1172.04 432.325 1205.56 465.835 1205.56 506.792V528.378L1205.58 528.363L1205.56 528.384L1205.68 1015.6C1203.9 1069.76 1180.43 1089.08 1102.31 1089.99Z" fill="#007AB4"/>
<path d="M749.878 853.597C746.714 853.597 743.552 852.647 740.832 850.758L736.107 847.466L466.671 1034.82H1033.28L763.769 847.419C763.769 847.419 753.016 853.597 749.878 853.597Z" fill="#007AB4"/>
<path d="M1081.03 479.357L1081.04 479.341L1080.99 479.386L1081.03 479.357Z" fill="#007AB4"/>
<path d="M1032.84 495.174H468.814L749.907 703.585L1032.84 495.174Z" fill="#007AB4"/>
<path d="M721.981 837.637L459.895 657.111L459.747 1020.35L722.243 837.822L721.981 837.637Z" fill="#007AB4"/>
</svg>
