<svg width="1500" height="1500" viewBox="0 0 1500 1500" fill="none" xmlns="http://www.w3.org/2000/svg">
<path d="M750 18.5625C335.625 18.5625 0 354.375 0 768.562C0 1100 214.875 1381.06 512.812 1480.12C550.312 1487.19 564.063 1464 564.063 1444.06C564.063 1426.25 563.437 1379.06 563.125 1316.56C354.499 1361.81 310.5 1215.94 310.5 1215.94C276.375 1129.38 227.062 1106.25 227.062 1106.25C159.125 1059.75 232.312 1060.69 232.312 1060.69C307.625 1065.94 347.187 1137.94 347.187 1137.94C414.063 1252.62 522.75 1219.5 565.625 1200.31C572.375 1151.81 591.687 1118.75 613.125 1100C446.562 1081.25 271.5 1016.75 271.5 729.375C271.5 647.5 300.562 580.625 348.687 528.125C340.249 509.187 314.937 432.938 355.249 329.625C355.249 329.625 418.062 309.5 561.5 406.5C621.5 389.812 685.25 381.562 749 381.188C812.75 381.562 876.5 389.812 936.5 406.5C1079 309.5 1141.81 329.625 1141.81 329.625C1182.12 432.938 1156.81 509.187 1149.31 528.125C1197.12 580.625 1226.19 647.5 1226.19 729.375C1226.19 1017.5 1050.87 1080.94 884 1099.38C910.25 1121.88 934.625 1167.87 934.625 1238.13C934.625 1338.5 933.687 1419.12 933.687 1443.5C933.687 1463.19 946.812 1486.62 985.25 1479.12C1285.31 1380.75 1500 1099.5 1500 768.562C1500 354.375 1164.19 18.5625 750 18.5625Z" fill="#007AB4"/>
</svg>
