<svg width="1500" height="1500" viewBox="0 0 1500 1500" fill="none" xmlns="http://www.w3.org/2000/svg">
<path fill-rule="evenodd" clip-rule="evenodd" d="M750 0C1163.94 0 1500 336.064 1500 750C1500 1163.94 1163.94 1500 750 1500C336.064 1500 0 1163.94 0 750C0 336.064 336.064 0 750 0ZM515.517 1171.5V585.791H320.798V1171.5H515.517ZM1217.53 1171.5V835.62C1217.53 655.711 1121.47 572.019 993.381 572.019C890.095 572.019 843.829 628.822 817.925 668.719V585.791H623.256C625.837 640.743 623.256 1171.5 623.256 1171.5H817.922V844.397C817.922 826.89 819.182 809.388 824.341 796.875C838.389 761.909 870.445 725.687 924.229 725.687C994.641 725.687 1022.85 779.417 1022.85 858.12V1171.5H1217.53V1171.5ZM419.473 303.369C352.852 303.369 309.325 347.168 309.325 404.575C309.325 460.772 351.527 505.778 416.895 505.778H418.151C486.047 505.778 528.308 460.772 528.308 404.575C527.048 347.168 486.05 303.369 419.473 303.369V303.369Z" fill="#007AB4"/>
</svg>
