<svg width="1500" height="1500" viewBox="0 0 1500 1500" fill="none" xmlns="http://www.w3.org/2000/svg">
<path d="M1009.12 535.994C1009.12 683.949 888.589 803.986 739.904 803.986C591.197 803.986 470.684 683.949 470.684 535.994C470.684 387.996 591.218 268.002 739.904 268.002C888.621 267.992 1009.12 387.986 1009.12 535.994ZM1288.45 535.994C1288.45 239.967 1047.39 0 750 0C452.629 0 211.551 239.967 211.551 535.994C211.551 666.148 258.202 785.486 335.725 878.313L750.466 1473.98L1171.27 869.624C1186.38 850.796 1200.23 830.952 1212.71 810.092L1216.97 804.017H1216.27C1262.1 725.129 1288.45 633.668 1288.45 535.994Z" fill="#007AB4"/>
</svg>
