<svg width="1500" height="1500" viewBox="0 0 1500 1500" fill="none" xmlns="http://www.w3.org/2000/svg">
<g clip-path="url(#clip0_19_2)">
<path d="M746.5 -3.00821e-06C548.195 0.925432 358.327 80.3514 218.431 220.904C78.5348 361.456 -0.00215931 551.693 4.45272e-08 750C4.45275e-08 948.912 79.0176 1139.68 219.67 1280.33C360.322 1420.98 551.088 1500 750 1500C948.912 1500 1139.68 1420.98 1280.33 1280.33C1420.98 1139.68 1500 948.912 1500 750C1500 551.088 1420.98 360.322 1280.33 219.67C1139.68 79.0176 948.912 -3.00821e-06 750 -3.00821e-06C748.833 -0.00272523 747.667 -0.00272523 746.5 -3.00821e-06V-3.00821e-06ZM1056.63 451.5C1062.88 451.375 1076.69 452.938 1085.69 460.25C1091.67 465.444 1095.48 472.692 1096.37 480.563C1097.37 486.375 1098.63 499.688 1097.63 510.063C1086.38 628.688 1037.5 916.438 1012.62 1049.25C1002.12 1105.5 981.437 1124.31 961.375 1126.13C917.875 1130.19 884.813 1097.38 842.625 1069.75C776.625 1026.44 739.312 999.5 675.25 957.25C601.187 908.5 649.188 881.625 691.375 837.875C702.438 826.375 894.313 651.812 898.063 636C898.5 634 898.937 626.625 894.562 622.75C890.187 618.875 883.688 620.187 879 621.25C872.375 622.75 766.938 692.5 562.688 830.313C532.688 850.938 505.625 860.938 481.313 860.313C454.563 859.813 403.062 845.25 364.75 832.813C317.75 817.5 280.438 809.438 283.688 783.5C285.375 770 304 756.188 339.5 742.063C558.125 646.813 703.875 584 776.875 553.688C985.125 467.063 1028.44 452 1056.63 451.5V451.5Z" fill="#007AB4"/>
</g>
<defs>
<clipPath id="clip0_19_2">
<rect width="1500" height="1500" fill="white"/>
</clipPath>
</defs>
</svg>
